<svg xmlns="http://www.w3.org/2000/svg" xmlns:xlink="http://www.w3.org/1999/xlink" aria-hidden="true" role="img" class="iconify iconify--logos" width="31.88" height="32" preserveAspectRatio="xMidYMid meet" viewBox="0 0 256 257"><defs><linearGradient id="IconifyId1813088fe1fbc01fb466" x1="-.828%" x2="57.636%" y1="7.652%" y2="78.411%"><stop offset="0%" stop-color="#41D1FF"></stop><stop offset="100%" stop-color="#BD34FE"></stop></linearGradient><linearGradient id="IconifyId1813088fe1fbc01fb467" x1="43.376%" x2="50.316%" y1="2.242%" y2="89.03%"><stop offset="0%" stop-color="#FFBD4F"></stop><stop offset="100%" stop-color="#FF980E"></stop></linearGradient></defs><path fill="url(#IconifyId1813088fe1fbc01fb466)" d="M255.153 37.938L134.897 252.976c-2.483 4.44-8.862 4.466-11.382.048L.875 37.958c-2.746-4.814 1.371-12.437 6.827-9.067l12.333 7.7c2.09 1.3 4.715.745 5.883-1.234l13.055-22.14c2.129-3.615 7.748-3.681 9.877-.048l11.236 19.316c1.922 3.309 5.947 3.309 7.869 0l11.01-18.684c2.154-3.649 7.815-3.649 9.969 0l11.47 19.457c2.018 3.427 6.043 3.387 8.046-.086l18.572-32.155c2.091-3.623 7.92-3.623 10.011 0l18.702 32.352c2.003 3.481 6.028 3.5 8.018.034l12.58-21.797c1.972-3.412 5.897-3.412 7.87 0l12.723 22.008c2.154 3.73 7.885 3.715 10.008-.033z"/><path fill="url(#IconifyId1813088fe1fbc01fb467)" d="M185.432.063L96.44 17.501a3.268 3.268 0 0 0-2.634 3.014l-5.474 92.456a3.268 3.268 0 0 0 3.997 3.378l24.777-5.718c2.318-.535 4.413 1.507 3.936 3.838l-7.361 36.047c-.495 2.426 1.782 4.5 4.151 3.78l15.304-4.649c2.372-.72 4.652 1.36 4.15 3.788l-11.698 56.621c-.732 3.542 3.979 5.473 5.943 2.437l1.313-2.028l72.516-144.72c1.215-2.423-.88-5.186-3.54-4.672l-25.505 4.922c-2.396.462-4.435-1.77-3.759-4.114L167.86.116c.688-2.386-1.74-4.487-4.647-4.015l-25.912 4.167c-2.396.386-3.61-2.724-1.91-4.804z"/></svg>
